# xmcd CD database file generated by LOLA_Freedb v0.9beta0
# 
# Track frame offsets:
#      150
#      13260
#      23540
#      37141
#      51559
#      63812
#      75654
#      87069
#      98546
#      108806
#      126187
#      136766
# 
# Disc length: 1991 seconds
# 
# Revision: 0 
# Processed by: cddbd v1.5.1PL2 Copyright (c) Steve Scherf et al.
# Submitted via: LOLA_Freedb v0.9beta0
# 
DISCID=8d07c50c
DTITLE=The Brothers Four - The honeywind blows
DYEAR=1900
DGENRE=
TTITLE0=House of the rising sun
TTITLE1=Somewhere
TTITLE2=Lazy Harry's
TTITLE3=Poverty Hill
TTITLE4=Feed the birds
TTITLE5=Nancy O.
TTITLE6=The honeywind blows
TTITLE7=Cleano
TTITLE8=Turn around
TTITLE9=The waves roll out
TTITLE10=Little play soldiers
TTITLE11=Mr. Tambourine Man
EXTD=
EXTT0=
EXTT1=
EXTT2=
EXTT3=
EXTT4=
EXTT5=
EXTT6=
EXTT7=
EXTT8=
EXTT9=
EXTT10=
EXTT11=
PLAYORDER=
